<svg width="183" height="67" viewBox="0 0 183 67" fill="none" xmlns="http://www.w3.org/2000/svg">
<path d="M102 0L84.3533 12.5614C83.0928 13.6138 82.2217 15.1485 82 16.8956V21.5145L102 7.27796V0Z" fill="white"/>
<path d="M99.9532 30.2205C101.048 29.1838 101.797 27.7606 102 26.1588V21.6113L87.5061 31.9048L82 35.8242V43L99.9532 30.2205Z" fill="white"/>
<path d="M102 16.8956C101.707 14.5847 100.277 12.6455 98.3137 11.7024L82 23.317V26.1588C82.2959 28.4905 83.7483 30.4437 85.7393 31.3773L102 19.8052V16.8956Z" fill="white"/>
<path d="M14.1689 60.78C14.1689 60.4701 13.961 60.2822 13.5453 60.2163C13.1354 60.1504 12.1451 60.1174 10.5747 60.1174H6.26167C5.30322 60.1174 4.46025 60.0218 3.73275 59.8307C3.00525 59.6395 2.43942 59.3988 2.03526 59.1088C1.63687 58.8187 1.27312 58.4133 0.944012 57.8925C0.62068 57.3651 0.459015 56.6926 0.459015 55.8752C0.459015 55.4005 0.496547 54.9687 0.571606 54.5797C0.652439 54.1908 0.814104 53.782 1.0566 53.3535C1.2991 52.9184 1.62243 52.5492 2.0266 52.246C2.43653 51.9427 3.00237 51.6922 3.72409 51.4944C4.44581 51.2967 5.29167 51.1978 6.26167 51.1978H12.965C14.8357 51.1978 16.0511 51.5241 16.6112 52.1768C17.1712 52.8228 17.5465 53.4096 17.7371 53.937C17.9276 54.4644 18.0748 55.1203 18.1787 55.9048H13.9437C13.7993 55.5686 13.6059 55.3346 13.3634 55.2027C13.1209 55.0709 12.6619 55.0049 11.9864 55.0049H8.31424C6.76687 55.0049 5.77955 55.0478 5.35229 55.1335C4.93081 55.2126 4.72007 55.4335 4.72007 55.796C4.72007 56.1059 4.92503 56.2971 5.33497 56.3696C5.75068 56.4355 6.74377 56.4685 8.31424 56.4685H12.6273C13.5857 56.4685 14.4287 56.5641 15.1562 56.7553C15.8837 56.9398 16.4466 57.1772 16.845 57.4672C17.2492 57.7573 17.6129 58.1661 17.9363 58.6935C18.2654 59.2143 18.4299 59.8834 18.4299 60.7009C18.4299 61.1755 18.3895 61.6073 18.3087 61.9963C18.2336 62.3852 17.9334 63.0478 17.408 63.9839C16.8883 64.9135 15.2947 65.3782 12.6273 65.3782H5.21373C3.33725 65.3782 2.11898 65.0552 1.55892 64.4091C1.00464 63.7565 0.632231 63.1698 0.441696 62.6489C0.251161 62.1215 0.103928 61.4656 0 60.6811H4.23507C4.37941 61.0173 4.57284 61.2513 4.81533 61.3832C5.05783 61.5084 5.51685 61.5711 6.19238 61.5711H10.5747C12.1221 61.5711 13.1065 61.5315 13.528 61.4524C13.9552 61.3667 14.1689 61.1426 14.1689 60.78Z" fill="white"/>
<path d="M20.1101 65.3782V51.1978H24.3711V65.3782H20.1101Z" fill="white"/>
<path d="M30.858 51.1978L35.0844 55.3906L39.3021 51.1978H45.1741L38.029 58.3078L45.1741 65.3782H39.2675L35.0844 61.225L30.8926 65.3782H24.986L32.1398 58.3078L24.986 51.1978H30.858Z" fill="white"/>
<path d="M57.3336 58.3276C57.3336 59.3824 57.5992 60.2262 58.1304 60.8591C58.6616 61.4854 59.597 61.7985 60.9365 61.7985H64.6086C66.4274 61.7985 67.5504 61.1557 67.9776 59.8702H72.3772C72.129 61.5711 71.4419 62.9489 70.316 64.0037C69.1959 65.0519 67.6168 65.576 65.5786 65.576H59.9405C58.7222 65.576 57.6599 65.3848 56.7534 65.0025C55.8527 64.6201 55.0126 63.9345 54.2331 62.9456C53.4594 61.9501 53.0726 60.4174 53.0726 58.3473C53.0726 55.7367 53.7337 53.8611 55.0559 52.7206C56.3839 51.5735 58.0121 51 59.9405 51H65.5786C67.5417 51 69.0862 51.5175 70.2121 52.5525C71.3437 53.581 72.0539 54.9127 72.3426 56.5476H67.891C67.406 55.3873 66.3119 54.8072 64.6086 54.8072H60.9365C58.5346 54.8072 57.3336 55.9806 57.3336 58.3276Z" fill="white"/>
<path d="M73.8149 61.1162C73.5666 60.2724 73.4425 59.3461 73.4425 58.3375C73.4425 57.3222 73.5666 56.3894 73.8149 55.5389C74.0632 54.6885 74.45 53.9172 74.9754 53.225C75.5066 52.5262 76.2226 51.9823 77.1233 51.5933C78.0298 51.1978 79.0921 51 80.3104 51H86.6587C87.8538 51 88.9076 51.2011 89.8198 51.6032C90.7379 51.9988 91.4625 52.5459 91.9937 53.2447C92.5306 53.937 92.929 54.7083 93.1888 55.5587C93.4486 56.4091 93.5786 57.3354 93.5786 58.3375C93.5786 59.3329 93.4486 60.2526 93.1888 61.0964C92.929 61.9403 92.5277 62.705 91.985 63.3906C91.448 64.0696 90.7263 64.6036 89.8198 64.9926C88.9191 65.3815 87.8654 65.576 86.6587 65.576H80.3104C79.0921 65.576 78.0298 65.3848 77.1233 65.0025C76.2226 64.6201 75.5066 64.0894 74.9754 63.4104C74.45 62.7248 74.0632 61.96 73.8149 61.1162ZM77.7035 58.3078C77.7035 59.3626 77.9691 60.2097 78.5003 60.8492C79.0315 61.4821 79.9669 61.7985 81.3064 61.7985H85.6887C88.1137 61.7985 89.3233 60.6349 89.3175 58.3078C89.3175 55.974 88.1079 54.8072 85.6887 54.8072H81.3064C78.9045 54.8072 77.7035 55.974 77.7035 58.3078Z" fill="white"/>
<path d="M95.354 65.3782V51.1978H107.618C108.824 51.1978 109.878 51.389 110.779 51.7713C111.685 52.1471 112.537 52.8327 113.334 53.8282C114.13 54.8171 114.529 56.3333 114.529 58.377C114.529 60.4207 113.96 62.0985 112.823 63.4104C111.691 64.7223 109.956 65.3782 107.618 65.3782H95.354ZM106.639 55.0049H99.6151V61.5909H106.639C109.064 61.5909 110.276 60.4932 110.276 58.2979C110.276 56.1026 109.064 55.0049 106.639 55.0049Z" fill="white"/>
<path d="M133.591 55.0544H120.557V56.4685H132.491V60.1174H120.557V61.5315H133.591V65.3782H116.296V51.1978H133.591V55.0544Z" fill="white"/>
<path d="M135.28 65.3782V51.1978H148.037C151.184 51.1978 152.757 52.4471 152.757 54.9456C152.757 55.7301 152.595 56.4718 152.272 57.1706C151.954 57.8628 151.464 58.3309 150.8 58.5748C151.464 58.9242 151.963 59.3296 152.298 59.7911C152.639 60.246 152.841 60.7108 152.904 61.1854C152.968 61.6601 153.005 62.3127 153.017 63.1434C153.028 63.974 153.282 64.719 153.779 65.3782H149.561C149.324 65.3123 149.16 65.1145 149.067 64.7849C148.981 64.4487 148.923 64.0696 148.894 63.6477C148.865 63.2192 148.811 62.8006 148.73 62.3918C148.655 61.9765 148.47 61.6271 148.175 61.3436C147.881 61.0602 147.468 60.9184 146.937 60.9184H139.593V65.3782H135.28ZM139.593 55.0544V57.4771H147.076C147.584 57.4771 147.956 57.3914 148.193 57.22C148.429 57.042 148.548 56.7157 148.548 56.241C148.548 55.7664 148.415 55.4499 148.149 55.2917C147.884 55.1335 147.503 55.0544 147.006 55.0544H139.593Z" fill="white"/>
<path d="M168.311 60.78C168.311 60.4701 168.104 60.2822 167.688 60.2163C167.278 60.1504 166.288 60.1174 164.717 60.1174H160.404C159.446 60.1174 158.603 60.0218 157.875 59.8307C157.148 59.6395 156.582 59.3988 156.178 59.1088C155.78 58.8187 155.416 58.4133 155.087 57.8925C154.763 57.3651 154.602 56.6926 154.602 55.8752C154.602 55.4005 154.639 54.9687 154.714 54.5797C154.795 54.1908 154.957 53.782 155.199 53.3535C155.442 52.9184 155.765 52.5492 156.169 52.246C156.579 51.9427 157.145 51.6922 157.867 51.4944C158.588 51.2967 159.434 51.1978 160.404 51.1978H167.108C168.978 51.1978 170.194 51.5241 170.754 52.1768C171.314 52.8228 171.689 53.4096 171.88 53.937C172.07 54.4644 172.217 55.1203 172.321 55.9048H168.086C167.942 55.5686 167.749 55.3346 167.506 55.2027C167.264 55.0709 166.805 55.0049 166.129 55.0049H162.457C160.91 55.0049 159.922 55.0478 159.495 55.1335C159.073 55.2126 158.863 55.4335 158.863 55.796C158.863 56.1059 159.068 56.2971 159.478 56.3696C159.893 56.4355 160.886 56.4685 162.457 56.4685H166.77C167.728 56.4685 168.571 56.5641 169.299 56.7553C170.026 56.9398 170.589 57.1772 170.988 57.4672C171.392 57.7573 171.756 58.1661 172.079 58.6935C172.408 59.2143 172.573 59.8834 172.573 60.7009C172.573 61.1755 172.532 61.6073 172.451 61.9963C172.376 62.3852 172.076 63.0478 171.551 63.9839C171.031 64.9135 169.437 65.3782 166.77 65.3782H159.356C157.48 65.3782 156.262 65.0552 155.702 64.4091C155.147 63.7565 154.775 63.1698 154.584 62.6489C154.394 62.1215 154.247 61.4656 154.143 60.6811H158.378C158.522 61.0173 158.715 61.2513 158.958 61.3832C159.2 61.5084 159.659 61.5711 160.335 61.5711H164.717C166.265 61.5711 167.249 61.5315 167.671 61.4524C168.098 61.3667 168.311 61.1426 168.311 60.78Z" fill="white"/>
<path d="M173.014 67V63.7763H183V67H173.014Z" fill="white"/>
</svg>
